# xmcd
#
# Track frame offsets:
#	150
#	10089
#	21902
#	39594
#	51691
#	68734
#	83789
#	98807
#	111784
#	127936
#	138647
#	152335
#	165754
#	183336
#	196383
#	209618
#	221905
#	240687
#	255164
#	266972
#
# Disc length: 3701 seconds
#
# Revision: 1
# Processed by: cddbd v1.5.2PL0 Copyright (c) Steve Scherf et al.
# Submitted via: audiograbber 1.83.01
#
DISCID=180e7314
DTITLE=susan mccann (ireland) - collection - ireland's first lady of country mu
DTITLE=sic cd1
DYEAR=2011
DGENRE=country
TTITLE0=never ending love affair
TTITLE1=there goes my everything
TTITLE2=bunch of thyme
TTITLE3=he never will be mine
TTITLE4=fooled the heart out of me
TTITLE5=isle of innishfree
TTITLE6=daddy's hands
TTITLE7=once a day
TTITLE8=angels roses and rain
TTITLE9=boy in your arms
TTITLE10=eileen mc manus
TTITLE11=fantasize my freedom
TTITLE12=rose of my heart
TTITLE13=noreen bawn
TTITLE14=help me make it thru the night
TTITLE15=my favourite things
TTITLE16=i'll take you home again, kathleen
TTITLE17=let the rest of the world go by
TTITLE18=i can't remember
TTITLE19=softly softly
EXTD=
EXTT0=
EXTT1=
EXTT2=
EXTT3=
EXTT4=
EXTT5=
EXTT6=
EXTT7=
EXTT8=
EXTT9=
EXTT10=
EXTT11=
EXTT12=
EXTT13=
EXTT14=
EXTT15=
EXTT16=
EXTT17=
EXTT18=
EXTT19=
PLAYORDER=
